<svg width="512" height="512" viewBox="0 0 512 512" fill="none" xmlns="http://www.w3.org/2000/svg">
<mask id="mask0_46_507" style="mask-type:luminance" maskUnits="userSpaceOnUse" x="31" y="45" width="450" height="423">
<path d="M481 45H31V467.524H481V45Z" fill="white"/>
</mask>
<g mask="url(#mask0_46_507)">
<mask id="mask1_46_507" style="mask-type:luminance" maskUnits="userSpaceOnUse" x="31" y="46" width="450" height="421">
<path d="M31.2617 46.5029H480.539V466.924H31.2617V46.5029Z" fill="white"/>
</mask>
<g mask="url(#mask1_46_507)">
<path d="M478.99 63.2263L349.219 303.081C311.007 271.675 277.385 216.574 279.258 171.43L318.524 100.277C319.937 97.722 322.34 95.7544 325.262 94.7558L463.566 47.4733C474.1 43.8728 484.002 53.9813 478.99 63.2263ZM246.103 194.302C245.77 193.849 245.463 193.374 245.188 192.857L235.793 177.069C234.393 174.461 231.964 172.44 228.998 171.43L88.1433 123.284C77.6668 119.695 67.791 129.675 72.6554 138.92L241.865 460.212C246.352 468.734 259.545 468.805 264.134 460.329L344.783 311.269C300.563 282.23 265.931 241.637 246.103 194.302Z" fill="#1ABC9C"/>
</g>
</g>
</svg>
